<mxfile host="65bd71144e">
    <diagram name="Page-1" id="NCVhBEKMuIL8DRtao78c">
        <mxGraphModel dx="2323" dy="1726" grid="1" gridSize="10" guides="1" tooltips="1" connect="1" arrows="1" fold="1" page="1" pageScale="1" pageWidth="850" pageHeight="1100" math="0" shadow="0">
            <root>
                <mxCell id="0"/>
                <mxCell id="1" parent="0"/>
                <mxCell id="UuS1oSPDRo_ICflPnTkP-29" value="" style="rounded=0;whiteSpace=wrap;html=1;strokeWidth=2;opacity=70;fontSize=13;verticalAlign=middle;spacing=10;" parent="1" vertex="1">
                    <mxGeometry x="1390" y="1890" width="1000" height="440" as="geometry"/>
                </mxCell>
                <mxCell id="UuS1oSPDRo_ICflPnTkP-30" value="&lt;b&gt;DATABASE LAYER&lt;br&gt;&lt;/b&gt;" style="rounded=0;whiteSpace=wrap;html=1;fontSize=13;strokeWidth=2;opacity=70;verticalAlign=middle;spacing=10;" parent="1" vertex="1">
                    <mxGeometry x="1390" y="1890" width="180" height="60" as="geometry"/>
                </mxCell>
                <mxCell id="UuS1oSPDRo_ICflPnTkP-25" value="" style="rounded=0;whiteSpace=wrap;html=1;strokeWidth=2;opacity=70;fontSize=13;verticalAlign=middle;spacing=10;" parent="1" vertex="1">
                    <mxGeometry x="1400" y="1020" width="1020" height="540" as="geometry"/>
                </mxCell>
                <mxCell id="UuS1oSPDRo_ICflPnTkP-26" value="&lt;b style=&quot;font-size: 13px;&quot;&gt;PERSISTANCE LAYER&lt;br style=&quot;font-size: 13px;&quot;&gt;&lt;/b&gt;" style="rounded=0;whiteSpace=wrap;html=1;fontSize=13;strokeWidth=2;opacity=70;verticalAlign=middle;spacing=10;" parent="1" vertex="1">
                    <mxGeometry x="1400" y="1020" width="180" height="60" as="geometry"/>
                </mxCell>
                <mxCell id="UuS1oSPDRo_ICflPnTkP-20" value="" style="rounded=0;whiteSpace=wrap;html=1;strokeWidth=2;opacity=70;fontSize=13;verticalAlign=middle;spacing=10;" parent="1" vertex="1">
                    <mxGeometry x="1400" y="365" width="1020" height="255" as="geometry"/>
                </mxCell>
                <mxCell id="UuS1oSPDRo_ICflPnTkP-21" value="&lt;b style=&quot;font-size: 13px;&quot;&gt;BUSINESS LAYER&lt;br style=&quot;font-size: 13px;&quot;&gt;&lt;/b&gt;" style="rounded=0;whiteSpace=wrap;html=1;fontSize=13;strokeWidth=2;opacity=70;verticalAlign=middle;spacing=10;" parent="1" vertex="1">
                    <mxGeometry x="1400" y="365" width="180" height="60" as="geometry"/>
                </mxCell>
                <mxCell id="UuS1oSPDRo_ICflPnTkP-8" value="" style="rounded=0;whiteSpace=wrap;html=1;strokeWidth=2;opacity=70;fontSize=13;verticalAlign=middle;spacing=10;" parent="1" vertex="1">
                    <mxGeometry x="1400" y="-370" width="1020" height="310" as="geometry"/>
                </mxCell>
                <mxCell id="bqATVecDFZBd0OB_Plpx-9" style="edgeStyle=orthogonalEdgeStyle;rounded=0;orthogonalLoop=1;jettySize=auto;html=1;exitX=0.75;exitY=0;exitDx=0;exitDy=0;entryX=0.75;entryY=1;entryDx=0;entryDy=0;shadow=0;strokeWidth=2;opacity=70;fontSize=13;verticalAlign=middle;spacing=10;" parent="1" source="bqATVecDFZBd0OB_Plpx-1" target="bqATVecDFZBd0OB_Plpx-3" edge="1">
                    <mxGeometry relative="1" as="geometry">
                        <Array as="points">
                            <mxPoint x="1978" y="1930"/>
                            <mxPoint x="1978" y="1630"/>
                        </Array>
                    </mxGeometry>
                </mxCell>
                <mxCell id="bqATVecDFZBd0OB_Plpx-1" value="&lt;b&gt;STORAGE&lt;br&gt;&lt;/b&gt;&lt;br&gt;&lt;b&gt;(generally 3rd party)&lt;/b&gt;" style="rounded=0;whiteSpace=wrap;html=1;fillColor=#e1d5e7;strokeColor=#9673a6;shadow=0;strokeWidth=2;opacity=70;fontSize=13;verticalAlign=middle;spacing=10;" parent="1" vertex="1">
                    <mxGeometry x="1675" y="2080" width="395" height="90" as="geometry"/>
                </mxCell>
                <mxCell id="bqATVecDFZBd0OB_Plpx-8" style="edgeStyle=orthogonalEdgeStyle;rounded=0;orthogonalLoop=1;jettySize=auto;html=1;exitX=0.3;exitY=0.99;exitDx=0;exitDy=0;entryX=0.25;entryY=0;entryDx=0;entryDy=0;shadow=0;strokeWidth=2;opacity=70;fontSize=13;exitPerimeter=0;verticalAlign=middle;spacing=10;" parent="1" source="bqATVecDFZBd0OB_Plpx-3" edge="1">
                    <mxGeometry relative="1" as="geometry">
                        <mxPoint x="1800.02" y="1480" as="sourcePoint"/>
                        <mxPoint x="1801.2700000000004" y="2080" as="targetPoint"/>
                        <Array as="points"/>
                    </mxGeometry>
                </mxCell>
                <mxCell id="bqATVecDFZBd0OB_Plpx-3" value="&lt;b style=&quot;font-size: 13px;&quot;&gt;REPOSITORY&lt;/b&gt;" style="rounded=0;whiteSpace=wrap;html=1;fillColor=#f8cecc;strokeColor=#b85450;shadow=0;strokeWidth=2;opacity=70;fontSize=13;verticalAlign=middle;spacing=10;" parent="1" vertex="1">
                    <mxGeometry x="1685" y="1250" width="390" height="80" as="geometry"/>
                </mxCell>
                <mxCell id="bqATVecDFZBd0OB_Plpx-7" value="&lt;b&gt;Data generally has to be serialized/deserialized here to allow communication with DB layer&lt;br&gt;&lt;/b&gt;" style="rounded=1;whiteSpace=wrap;html=1;fillColor=#D7DEE6;strokeColor=#23445d;shadow=0;strokeWidth=2;opacity=70;fontSize=13;verticalAlign=middle;spacing=10;" parent="1" vertex="1">
                    <mxGeometry x="1520" y="1400" width="210" height="100" as="geometry"/>
                </mxCell>
                <mxCell id="UuS1oSPDRo_ICflPnTkP-12" style="edgeStyle=orthogonalEdgeStyle;rounded=0;orthogonalLoop=1;jettySize=auto;html=1;exitX=1;exitY=0.286;exitDx=0;exitDy=0;entryX=-0.006;entryY=0.399;entryDx=0;entryDy=0;endArrow=none;endFill=0;opacity=70;entryPerimeter=0;exitPerimeter=0;fontSize=13;verticalAlign=middle;spacing=10;" parent="1" source="bqATVecDFZBd0OB_Plpx-14" target="UuS1oSPDRo_ICflPnTkP-11" edge="1">
                    <mxGeometry relative="1" as="geometry">
                        <Array as="points">
                            <mxPoint x="2144" y="-300"/>
                        </Array>
                    </mxGeometry>
                </mxCell>
                <mxCell id="bqATVecDFZBd0OB_Plpx-14" value="&lt;b style=&quot;font-size: 13px;&quot;&gt;FLUTTER GUI&lt;br style=&quot;font-size: 13px;&quot;&gt;&lt;/b&gt;" style="rounded=0;whiteSpace=wrap;html=1;fillColor=#d5e8d4;strokeColor=#82b366;shadow=0;strokeWidth=2;opacity=70;fontSize=13;verticalAlign=middle;spacing=10;" parent="1" vertex="1">
                    <mxGeometry x="1695" y="-320" width="390" height="70" as="geometry"/>
                </mxCell>
                <mxCell id="bqATVecDFZBd0OB_Plpx-24" style="edgeStyle=orthogonalEdgeStyle;rounded=0;orthogonalLoop=1;jettySize=auto;html=1;exitX=0.75;exitY=0;exitDx=0;exitDy=0;entryX=0.75;entryY=1;entryDx=0;entryDy=0;shadow=0;strokeWidth=2;opacity=70;fontSize=13;verticalAlign=middle;spacing=10;" parent="1" source="bqATVecDFZBd0OB_Plpx-21" target="bqATVecDFZBd0OB_Plpx-14" edge="1">
                    <mxGeometry relative="1" as="geometry">
                        <Array as="points">
                            <mxPoint x="1988" y="280"/>
                            <mxPoint x="1988" y="230"/>
                        </Array>
                    </mxGeometry>
                </mxCell>
                <mxCell id="UuS1oSPDRo_ICflPnTkP-19" style="edgeStyle=orthogonalEdgeStyle;rounded=0;orthogonalLoop=1;jettySize=auto;html=1;exitX=1;exitY=0.5;exitDx=0;exitDy=0;endArrow=none;endFill=0;opacity=70;fontSize=13;verticalAlign=middle;spacing=10;" parent="1" source="bqATVecDFZBd0OB_Plpx-21" target="UuS1oSPDRo_ICflPnTkP-5" edge="1">
                    <mxGeometry relative="1" as="geometry"/>
                </mxCell>
                <mxCell id="bqATVecDFZBd0OB_Plpx-21" value="&lt;b style=&quot;font-size: 13px;&quot;&gt;BUSINESS LOGIC COMPONENT (BLOC DESIGN PATTERN)&lt;br style=&quot;font-size: 13px;&quot;&gt;&lt;/b&gt;" style="rounded=0;whiteSpace=wrap;html=1;fillColor=#dae8fc;strokeColor=#6c8ebf;shadow=0;strokeWidth=2;opacity=70;fontSize=13;verticalAlign=middle;spacing=10;" parent="1" vertex="1">
                    <mxGeometry x="1690" y="467.5" width="400" height="40" as="geometry"/>
                </mxCell>
                <mxCell id="bqATVecDFZBd0OB_Plpx-26" style="edgeStyle=orthogonalEdgeStyle;rounded=0;orthogonalLoop=1;jettySize=auto;html=1;exitX=0.5;exitY=1;exitDx=0;exitDy=0;shadow=0;strokeWidth=2;opacity=70;fontSize=13;verticalAlign=middle;spacing=10;" parent="1" source="bqATVecDFZBd0OB_Plpx-21" target="bqATVecDFZBd0OB_Plpx-21" edge="1">
                    <mxGeometry relative="1" as="geometry"/>
                </mxCell>
                <mxCell id="bqATVecDFZBd0OB_Plpx-29" value="&quot;state&quot;" style="rounded=1;whiteSpace=wrap;html=1;fillColor=#f5f5f5;fontColor=#333333;strokeColor=#666666;shadow=0;strokeWidth=2;opacity=70;fontSize=13;verticalAlign=middle;spacing=10;" parent="1" vertex="1">
                    <mxGeometry x="2020" y="-170" width="70" height="30" as="geometry"/>
                </mxCell>
                <mxCell id="UuS1oSPDRo_ICflPnTkP-4" style="edgeStyle=orthogonalEdgeStyle;rounded=0;orthogonalLoop=1;jettySize=auto;html=1;exitX=0;exitY=0.5;exitDx=0;exitDy=0;entryX=1;entryY=0.5;entryDx=0;entryDy=0;endArrow=none;endFill=0;opacity=70;fontSize=13;verticalAlign=middle;spacing=10;" parent="1" source="bqATVecDFZBd0OB_Plpx-30" target="UuS1oSPDRo_ICflPnTkP-3" edge="1">
                    <mxGeometry relative="1" as="geometry"/>
                </mxCell>
                <mxCell id="bqATVecDFZBd0OB_Plpx-30" value="&quot;event&quot;" style="rounded=1;whiteSpace=wrap;html=1;fillColor=#f5f5f5;fontColor=#333333;strokeColor=#666666;shadow=0;strokeWidth=2;opacity=70;fontSize=13;verticalAlign=middle;spacing=10;" parent="1" vertex="1">
                    <mxGeometry x="1640" y="-210" width="110" height="30" as="geometry"/>
                </mxCell>
                <mxCell id="IBTL42P-dhMwbu7w-Mex-7" value="&lt;b style=&quot;font-size: 13px;&quot;&gt;Envisioned Final Architecture&lt;br style=&quot;font-size: 13px;&quot;&gt;&lt;/b&gt;" style="rounded=0;whiteSpace=wrap;html=1;fontSize=13;strokeWidth=2;opacity=70;verticalAlign=middle;spacing=10;" parent="1" vertex="1">
                    <mxGeometry x="1712.5" y="-490" width="355" height="60" as="geometry"/>
                </mxCell>
                <mxCell id="UuS1oSPDRo_ICflPnTkP-1" value="&lt;b style=&quot;font-size: 13px;&quot;&gt;Holds data but also describes state.&lt;br style=&quot;font-size: 13px;&quot;&gt;&lt;br style=&quot;font-size: 13px;&quot;&gt;&quot;loading&quot;, &quot;error&quot;,&lt;br style=&quot;font-size: 13px;&quot;&gt; &quot;loaded&quot;, ...&lt;br style=&quot;font-size: 13px;&quot;&gt;&lt;/b&gt;" style="rounded=1;whiteSpace=wrap;html=1;fillColor=#D7DEE6;strokeColor=#23445d;shadow=0;strokeWidth=2;opacity=70;fontSize=13;verticalAlign=middle;spacing=10;" parent="1" vertex="1">
                    <mxGeometry x="2145" y="-200" width="170" height="110" as="geometry"/>
                </mxCell>
                <mxCell id="UuS1oSPDRo_ICflPnTkP-2" style="edgeStyle=orthogonalEdgeStyle;rounded=0;orthogonalLoop=1;jettySize=auto;html=1;exitX=1;exitY=0.5;exitDx=0;exitDy=0;entryX=0.004;entryY=0.415;entryDx=0;entryDy=0;entryPerimeter=0;endArrow=none;endFill=0;opacity=70;fontSize=13;verticalAlign=middle;spacing=10;" parent="1" source="bqATVecDFZBd0OB_Plpx-29" target="UuS1oSPDRo_ICflPnTkP-1" edge="1">
                    <mxGeometry relative="1" as="geometry"/>
                </mxCell>
                <mxCell id="UuS1oSPDRo_ICflPnTkP-3" value="&lt;b style=&quot;font-size: 13px;&quot;&gt;An event that holds data but also describes the action performed&lt;br style=&quot;font-size: 13px;&quot;&gt;&lt;br style=&quot;font-size: 13px;&quot;&gt;&quot;AddItem&quot;&lt;br style=&quot;font-size: 13px;&quot;&gt;&quot;ReloadItems&quot;&lt;br style=&quot;font-size: 13px;&quot;&gt;&lt;/b&gt;" style="rounded=1;whiteSpace=wrap;html=1;fillColor=#D7DEE6;strokeColor=#23445d;shadow=0;strokeWidth=2;opacity=70;fontSize=13;verticalAlign=middle;spacing=10;" parent="1" vertex="1">
                    <mxGeometry x="1440" y="-250" width="170" height="110" as="geometry"/>
                </mxCell>
                <mxCell id="UuS1oSPDRo_ICflPnTkP-5" value="&lt;ul style=&quot;font-size: 13px;&quot;&gt;&lt;li style=&quot;font-size: 13px;&quot;&gt;&lt;b style=&quot;font-size: 13px;&quot;&gt;Decides what to do with actions.&amp;nbsp;&lt;/b&gt;&lt;/li&gt;&lt;li style=&quot;font-size: 13px;&quot;&gt;&lt;b style=&quot;font-size: 13px;&quot;&gt;Executes business logic Performs operations on data.&lt;/b&gt;&lt;/li&gt;&lt;li style=&quot;font-size: 13px;&quot;&gt;&lt;b style=&quot;font-size: 13px;&quot;&gt;Decides which data source to communicate with.&lt;/b&gt;&lt;/li&gt;&lt;li style=&quot;font-size: 13px;&quot;&gt;&lt;b style=&quot;font-size: 13px;&quot;&gt;Sends state changes to GUI.&lt;/b&gt;&lt;/li&gt;&lt;/ul&gt;" style="rounded=1;whiteSpace=wrap;html=1;fillColor=#D7DEE6;strokeColor=#23445d;shadow=0;strokeWidth=2;opacity=70;fontSize=13;verticalAlign=middle;spacing=10;" parent="1" vertex="1">
                    <mxGeometry x="2145" y="417.5" width="250" height="140" as="geometry"/>
                </mxCell>
                <mxCell id="UuS1oSPDRo_ICflPnTkP-9" value="" style="rounded=0;whiteSpace=wrap;html=1;opacity=70;fontSize=13;verticalAlign=middle;spacing=10;" parent="1" vertex="1">
                    <mxGeometry x="1400" y="-370" width="120" height="60" as="geometry"/>
                </mxCell>
                <mxCell id="UuS1oSPDRo_ICflPnTkP-10" value="&lt;b style=&quot;font-size: 13px;&quot;&gt;PRESENTATION LAYER&lt;br style=&quot;font-size: 13px;&quot;&gt;&lt;/b&gt;" style="rounded=0;whiteSpace=wrap;html=1;fontSize=13;strokeWidth=2;opacity=70;verticalAlign=middle;spacing=10;" parent="1" vertex="1">
                    <mxGeometry x="1400" y="-370" width="180" height="60" as="geometry"/>
                </mxCell>
                <mxCell id="UuS1oSPDRo_ICflPnTkP-11" value="&lt;b style=&quot;font-size: 13px;&quot;&gt;Event listeners on GUI components will send events to BLOC.&lt;br style=&quot;font-size: 13px;&quot;&gt;&lt;br style=&quot;font-size: 13px;&quot;&gt;GUI components rendered based on state retrieved from bloc&lt;br style=&quot;font-size: 13px;&quot;&gt;&lt;/b&gt;" style="rounded=1;whiteSpace=wrap;html=1;fillColor=#D7DEE6;strokeColor=#23445d;shadow=0;strokeWidth=2;opacity=70;fontSize=13;verticalAlign=middle;spacing=10;" parent="1" vertex="1">
                    <mxGeometry x="2145" y="-340" width="235" height="100" as="geometry"/>
                </mxCell>
                <mxCell id="UuS1oSPDRo_ICflPnTkP-13" style="edgeStyle=orthogonalEdgeStyle;rounded=0;orthogonalLoop=1;jettySize=auto;html=1;entryX=0.175;entryY=0.063;entryDx=0;entryDy=0;entryPerimeter=0;strokeWidth=2;opacity=70;fontSize=13;exitX=0.164;exitY=1.05;exitDx=0;exitDy=0;exitPerimeter=0;verticalAlign=middle;spacing=10;" parent="1" source="bqATVecDFZBd0OB_Plpx-14" target="bqATVecDFZBd0OB_Plpx-21" edge="1">
                    <mxGeometry relative="1" as="geometry">
                        <mxPoint x="1760" y="150" as="sourcePoint"/>
                        <Array as="points">
                            <mxPoint x="1759" y="150"/>
                        </Array>
                    </mxGeometry>
                </mxCell>
                <mxCell id="UuS1oSPDRo_ICflPnTkP-14" style="edgeStyle=orthogonalEdgeStyle;rounded=0;orthogonalLoop=1;jettySize=auto;html=1;exitX=0.25;exitY=1;exitDx=0;exitDy=0;entryX=0.265;entryY=-0.014;entryDx=0;entryDy=0;entryPerimeter=0;strokeWidth=2;opacity=70;fontSize=13;verticalAlign=middle;spacing=10;" parent="1" source="bqATVecDFZBd0OB_Plpx-21" target="bqATVecDFZBd0OB_Plpx-3" edge="1">
                    <mxGeometry relative="1" as="geometry">
                        <Array as="points">
                            <mxPoint x="1788" y="507"/>
                        </Array>
                    </mxGeometry>
                </mxCell>
                <mxCell id="UuS1oSPDRo_ICflPnTkP-15" style="edgeStyle=orthogonalEdgeStyle;rounded=0;orthogonalLoop=1;jettySize=auto;html=1;entryX=0.704;entryY=0.97;entryDx=0;entryDy=0;entryPerimeter=0;strokeWidth=2;opacity=70;exitX=0.679;exitY=0.031;exitDx=0;exitDy=0;exitPerimeter=0;fontSize=13;verticalAlign=middle;spacing=10;" parent="1" source="bqATVecDFZBd0OB_Plpx-3" edge="1">
                    <mxGeometry relative="1" as="geometry">
                        <mxPoint x="1950" y="730" as="sourcePoint"/>
                        <mxPoint x="1950.0000000000005" y="506.3000000000002" as="targetPoint"/>
                        <Array as="points">
                            <mxPoint x="1950" y="1253"/>
                        </Array>
                    </mxGeometry>
                </mxCell>
                <mxCell id="UuS1oSPDRo_ICflPnTkP-27" value="&lt;b&gt;ANOTHER REPO&lt;br&gt;&lt;/b&gt;e.g.RecipesRepository" style="rounded=0;whiteSpace=wrap;html=1;fillColor=#f8cecc;strokeColor=#b85450;shadow=0;strokeWidth=2;opacity=70;fontSize=13;verticalAlign=middle;spacing=10;" parent="1" vertex="1">
                    <mxGeometry x="1490" y="1250" width="170" height="80" as="geometry"/>
                </mxCell>
                <mxCell id="UuS1oSPDRo_ICflPnTkP-28" value="&lt;b&gt;ANOTHER REPO&lt;br&gt;&lt;/b&gt;e.g. IngredientsRepository" style="rounded=0;whiteSpace=wrap;html=1;fillColor=#f8cecc;strokeColor=#b85450;shadow=0;strokeWidth=2;opacity=70;fontSize=13;verticalAlign=middle;spacing=10;" parent="1" vertex="1">
                    <mxGeometry x="2105" y="1250" width="210" height="80" as="geometry"/>
                </mxCell>
                <mxCell id="UuS1oSPDRo_ICflPnTkP-33" style="edgeStyle=orthogonalEdgeStyle;rounded=0;orthogonalLoop=1;jettySize=auto;html=1;exitX=0.849;exitY=-0.005;exitDx=0;exitDy=0;endArrow=none;endFill=0;opacity=70;fontSize=13;exitPerimeter=0;verticalAlign=middle;spacing=10;" parent="1" source="bqATVecDFZBd0OB_Plpx-3" target="UuS1oSPDRo_ICflPnTkP-34" edge="1">
                    <mxGeometry relative="1" as="geometry">
                        <mxPoint x="2020" y="1155.5" as="sourcePoint"/>
                        <Array as="points">
                            <mxPoint x="2016" y="1138"/>
                        </Array>
                    </mxGeometry>
                </mxCell>
                <mxCell id="UuS1oSPDRo_ICflPnTkP-34" value="&lt;font style=&quot;font-size: 14px;&quot;&gt;&lt;b&gt;These repositories provide a unified&lt;br&gt;interface for working with any data in the application&lt;br&gt;&lt;/b&gt;&lt;/font&gt;" style="rounded=1;whiteSpace=wrap;html=1;fillColor=#D7DEE6;strokeColor=#23445d;shadow=0;strokeWidth=2;opacity=70;fontSize=13;verticalAlign=middle;spacing=10;" parent="1" vertex="1">
                    <mxGeometry x="2070" y="1050" width="285" height="105" as="geometry"/>
                </mxCell>
                <mxCell id="UuS1oSPDRo_ICflPnTkP-35" value="&lt;b&gt;LOCAL&lt;br&gt;e.g. hive/sqlite/objectbox/file&lt;br&gt;&lt;/b&gt;" style="rounded=0;whiteSpace=wrap;html=1;fillColor=#e1d5e7;strokeColor=#9673a6;shadow=0;strokeWidth=2;opacity=70;fontSize=13;verticalAlign=middle;spacing=10;" parent="1" vertex="1">
                    <mxGeometry x="2095" y="2080" width="195" height="80" as="geometry"/>
                </mxCell>
                <mxCell id="UuS1oSPDRo_ICflPnTkP-36" value="&lt;div&gt;&lt;b&gt;REMOTE&lt;/b&gt;&lt;/div&gt;&lt;div&gt;&lt;b&gt;http/sql/mongodb&lt;/b&gt;&lt;/div&gt;" style="rounded=0;whiteSpace=wrap;html=1;fillColor=#e1d5e7;strokeColor=#9673a6;shadow=0;strokeWidth=2;opacity=70;fontSize=13;verticalAlign=middle;spacing=10;" parent="1" vertex="1">
                    <mxGeometry x="1470" y="2085" width="160" height="70" as="geometry"/>
                </mxCell>
                <mxCell id="UuS1oSPDRo_ICflPnTkP-37" value="&lt;b&gt;async operation&lt;br&gt;&lt;/b&gt;" style="rounded=1;whiteSpace=wrap;html=1;fillColor=#f5f5f5;fontColor=#333333;strokeColor=#666666;shadow=0;strokeWidth=2;opacity=70;fontSize=13;verticalAlign=middle;spacing=10;" parent="1" vertex="1">
                    <mxGeometry x="1580" y="100" width="140" height="70" as="geometry"/>
                </mxCell>
                <mxCell id="UuS1oSPDRo_ICflPnTkP-38" value="&lt;b&gt;&lt;span style=&quot;font-size: 13px;&quot;&gt;Communication can be&amp;nbsp;&lt;br style=&quot;font-size: 13px;&quot;&gt;sync, async,&lt;br style=&quot;font-size: 13px;&quot;&gt;streamed&lt;/span&gt;&lt;/b&gt;" style="rounded=1;whiteSpace=wrap;html=1;fillColor=#f5f5f5;fontColor=#333333;strokeColor=#666666;shadow=0;strokeWidth=2;opacity=70;fontSize=13;verticalAlign=middle;spacing=10;" parent="1" vertex="1">
                    <mxGeometry x="1590" y="810" width="140" height="70" as="geometry"/>
                </mxCell>
                <mxCell id="UuS1oSPDRo_ICflPnTkP-39" value="&lt;b&gt;state changes streamed&lt;br&gt;&lt;/b&gt;" style="rounded=1;whiteSpace=wrap;html=1;fillColor=#f5f5f5;fontColor=#333333;strokeColor=#666666;shadow=0;strokeWidth=2;opacity=70;fontSize=13;verticalAlign=middle;spacing=10;" parent="1" vertex="1">
                    <mxGeometry x="2040" y="100" width="140" height="70" as="geometry"/>
                </mxCell>
                <mxCell id="UuS1oSPDRo_ICflPnTkP-40" value="&lt;b&gt;Communication can be networked/local&lt;br&gt;Http/sql/nosql/file/grpc/graphql/..&lt;/b&gt;" style="rounded=1;whiteSpace=wrap;html=1;fillColor=#f5f5f5;fontColor=#333333;strokeColor=#666666;shadow=0;strokeWidth=2;opacity=70;fontSize=13;verticalAlign=middle;spacing=10;" parent="1" vertex="1">
                    <mxGeometry x="1470" y="1690" width="280" height="100" as="geometry"/>
                </mxCell>
                <mxCell id="UuS1oSPDRo_ICflPnTkP-41" value="Exposes CRUD operations" style="rounded=1;whiteSpace=wrap;html=1;fillColor=#D7DEE6;strokeColor=#23445d;shadow=0;strokeWidth=2;opacity=70;fontSize=13;verticalAlign=middle;spacing=10;" parent="1" vertex="1">
                    <mxGeometry x="2121.25" y="1155" width="182.5" height="50" as="geometry"/>
                </mxCell>
                <mxCell id="2" style="edgeStyle=none;hachureGap=4;html=1;exitX=0.75;exitY=0;exitDx=0;exitDy=0;entryX=0.75;entryY=1;entryDx=0;entryDy=0;fontFamily=Architects Daughter;fontSource=https%3A%2F%2Ffonts.googleapis.com%2Fcss%3Ffamily%3DArchitects%2BDaughter;fontSize=16;" parent="1" source="3" target="5" edge="1">
                    <mxGeometry relative="1" as="geometry"/>
                </mxCell>
                <mxCell id="3" value="&lt;b&gt;STORAGE&lt;br&gt;&lt;/b&gt;&lt;br&gt;&lt;b&gt;(generally 3rd party)&lt;/b&gt;" style="rounded=0;whiteSpace=wrap;html=1;fillColor=#e1d5e7;strokeColor=#9673a6;shadow=0;strokeWidth=2;opacity=70;fontSize=13;verticalAlign=middle;spacing=30;" parent="1" vertex="1">
                    <mxGeometry x="-520" y="795" width="395" height="90" as="geometry"/>
                </mxCell>
                <mxCell id="4" style="rounded=0;orthogonalLoop=1;jettySize=auto;html=1;exitX=0.75;exitY=0;exitDx=0;exitDy=0;entryX=0.75;entryY=1;entryDx=0;entryDy=0;" parent="1" source="5" target="9" edge="1">
                    <mxGeometry relative="1" as="geometry"/>
                </mxCell>
                <mxCell id="5" value="&lt;b style=&quot;font-size: 13px;&quot;&gt;REPOSITORY&lt;/b&gt;" style="rounded=0;whiteSpace=wrap;html=1;fillColor=#f8cecc;strokeColor=#b85450;shadow=0;strokeWidth=2;opacity=70;fontSize=13;verticalAlign=middle;spacing=30;" parent="1" vertex="1">
                    <mxGeometry x="-515" y="665" width="390" height="80" as="geometry"/>
                </mxCell>
                <mxCell id="6" value="&lt;b style=&quot;font-size: 13px;&quot;&gt;FLUTTER GUI&lt;br style=&quot;font-size: 13px;&quot;&gt;&lt;/b&gt;" style="rounded=0;whiteSpace=wrap;html=1;fillColor=#d5e8d4;strokeColor=#82b366;shadow=0;strokeWidth=2;opacity=70;fontSize=13;verticalAlign=middle;spacing=30;" parent="1" vertex="1">
                    <mxGeometry x="-510" y="420" width="390" height="70" as="geometry"/>
                </mxCell>
                <mxCell id="7" style="edgeStyle=orthogonalEdgeStyle;rounded=0;orthogonalLoop=1;jettySize=auto;html=1;exitX=0.75;exitY=0;exitDx=0;exitDy=0;verticalAlign=middle;spacing=30;" parent="1" source="9" edge="1">
                    <mxGeometry relative="1" as="geometry">
                        <mxPoint x="-219.677419354839" y="495" as="targetPoint"/>
                    </mxGeometry>
                </mxCell>
                <mxCell id="8" style="edgeStyle=none;hachureGap=4;html=1;exitX=0.363;exitY=0.188;exitDx=0;exitDy=0;entryX=0.346;entryY=1;entryDx=0;entryDy=0;entryPerimeter=0;fontFamily=Architects Daughter;fontSource=https%3A%2F%2Ffonts.googleapis.com%2Fcss%3Ffamily%3DArchitects%2BDaughter;fontSize=16;exitPerimeter=0;" parent="1" source="9" target="6" edge="1">
                    <mxGeometry relative="1" as="geometry"/>
                </mxCell>
                <mxCell id="9" value="&lt;b style=&quot;font-size: 13px;&quot;&gt;BUSINESS LOGIC COMPONENT (BLOC DESIGN PATTERN)&lt;br style=&quot;font-size: 13px;&quot;&gt;&lt;/b&gt;" style="rounded=0;whiteSpace=wrap;html=1;fillColor=#dae8fc;strokeColor=#6c8ebf;shadow=0;strokeWidth=2;opacity=70;fontSize=13;verticalAlign=middle;spacing=30;" parent="1" vertex="1">
                    <mxGeometry x="-520" y="552.5" width="400" height="40" as="geometry"/>
                </mxCell>
                <mxCell id="10" value="&lt;b&gt;1. Användaren gör något&lt;br&gt;&lt;/b&gt;" style="rounded=1;whiteSpace=wrap;html=1;fillColor=#f5f5f5;fontColor=#333333;strokeColor=#666666;shadow=0;strokeWidth=2;opacity=70;fontSize=13;verticalAlign=middle;spacing=30;" parent="1" vertex="1">
                    <mxGeometry x="-10" y="340" width="150" height="55" as="geometry"/>
                </mxCell>
                <mxCell id="11" value="&lt;b&gt;2. Ett event skickas till vårt bloc&lt;br&gt;&lt;/b&gt;" style="rounded=1;whiteSpace=wrap;html=1;fillColor=#f5f5f5;fontColor=#333333;strokeColor=#666666;shadow=0;strokeWidth=2;opacity=70;fontSize=13;verticalAlign=middle;spacing=30;" parent="1" vertex="1">
                    <mxGeometry x="-10" y="407.5" width="150" height="55" as="geometry"/>
                </mxCell>
                <mxCell id="12" value="&lt;b&gt;1. Klick!&lt;br&gt;&lt;/b&gt;" style="ellipse;shape=cloud;html=1;labelBorderColor=none;whiteSpace=wrap;verticalAlign=middle;spacing=30;strokeColor=none;shadow=0;fillColor=none;" parent="1" vertex="1">
                    <mxGeometry x="-525" y="350" width="120" height="80" as="geometry"/>
                </mxCell>
                <mxCell id="13" style="edgeStyle=orthogonalEdgeStyle;rounded=0;orthogonalLoop=1;jettySize=auto;html=1;exitX=0.25;exitY=1;exitDx=0;exitDy=0;entryX=0.267;entryY=0.025;entryDx=0;entryDy=0;entryPerimeter=0;verticalAlign=middle;spacing=30;" parent="1" source="6" target="9" edge="1">
                    <mxGeometry relative="1" as="geometry"/>
                </mxCell>
                <mxCell id="14" value="&lt;b&gt;2. UpdateItemEvent&lt;br&gt;&lt;/b&gt;" style="ellipse;shape=cloud;whiteSpace=wrap;html=1;verticalAlign=middle;spacing=30;strokeColor=none;shadow=0;fillColor=none;" parent="1" vertex="1">
                    <mxGeometry x="-600" y="492.5" width="230" height="50" as="geometry"/>
                </mxCell>
                <mxCell id="15" value="&lt;b&gt;3. Bloc avgör vad den ska göra med eventet.&lt;br&gt;&lt;/b&gt;" style="rounded=1;whiteSpace=wrap;html=1;fillColor=#f5f5f5;fontColor=#333333;strokeColor=#666666;shadow=0;strokeWidth=2;opacity=70;fontSize=13;verticalAlign=middle;spacing=30;" parent="1" vertex="1">
                    <mxGeometry x="-10" y="475" width="150" height="65" as="geometry"/>
                </mxCell>
                <mxCell id="16" value="&lt;b&gt;4. UpdatingState&lt;br&gt;(optional)&lt;br&gt;&lt;/b&gt;" style="ellipse;shape=cloud;whiteSpace=wrap;html=1;verticalAlign=middle;spacing=30;strokeColor=none;shadow=0;fillColor=none;" parent="1" vertex="1">
                    <mxGeometry x="-390" y="492.5" width="117.5" height="60" as="geometry"/>
                </mxCell>
                <mxCell id="17" value="&lt;b&gt;3. Potentiellt behandla data från GUI innan du skickar vidare till repo&lt;br&gt;&lt;/b&gt;" style="ellipse;shape=cloud;whiteSpace=wrap;html=1;verticalAlign=middle;spacing=30;strokeColor=none;shadow=0;fillColor=none;" parent="1" vertex="1">
                    <mxGeometry x="-705" y="486" width="185" height="165" as="geometry"/>
                </mxCell>
                <mxCell id="18" value="&lt;b&gt;4. (optional) bloc indikerar till gui att det skett en state förändring i applikationen&lt;br&gt;&lt;/b&gt;" style="rounded=1;whiteSpace=wrap;html=1;fillColor=#f5f5f5;fontColor=#333333;strokeColor=#666666;shadow=0;strokeWidth=2;opacity=70;fontSize=13;verticalAlign=middle;spacing=30;" parent="1" vertex="1">
                    <mxGeometry x="-15" y="552.5" width="160" height="102.5" as="geometry"/>
                </mxCell>
                <mxCell id="19" value="&lt;b&gt;5. Spara ändringar genom att använda CRUD operation från repot skapat i lib&lt;br&gt;&lt;/b&gt;" style="rounded=1;whiteSpace=wrap;html=1;fillColor=#f5f5f5;fontColor=#333333;strokeColor=#666666;shadow=0;strokeWidth=2;opacity=70;fontSize=13;verticalAlign=middle;spacing=30;" parent="1" vertex="1">
                    <mxGeometry x="-20" y="665" width="165" height="120" as="geometry"/>
                </mxCell>
                <mxCell id="20" style="edgeStyle=orthogonalEdgeStyle;rounded=0;orthogonalLoop=1;jettySize=auto;html=1;exitX=0.25;exitY=1;exitDx=0;exitDy=0;entryX=0.262;entryY=0.004;entryDx=0;entryDy=0;entryPerimeter=0;verticalAlign=middle;spacing=30;" parent="1" source="5" target="3" edge="1">
                    <mxGeometry relative="1" as="geometry"/>
                </mxCell>
                <mxCell id="21" value="&lt;div&gt;&lt;font style=&quot;font-size: 12px;&quot;&gt;&lt;b&gt;5. ItemRepository.&lt;/b&gt;&lt;/font&gt;&lt;b style=&quot;background-color: initial;&quot;&gt;updateItem(...)&lt;/b&gt;&lt;/div&gt;" style="ellipse;shape=cloud;whiteSpace=wrap;html=1;verticalAlign=middle;spacing=30;strokeColor=none;shadow=0;fillColor=none;" parent="1" vertex="1">
                    <mxGeometry x="-760" y="660" width="250" height="90" as="geometry"/>
                </mxCell>
                <mxCell id="22" style="rounded=0;orthogonalLoop=1;jettySize=auto;html=1;exitX=0.25;exitY=1;exitDx=0;exitDy=0;entryX=0.24;entryY=-0.005;entryDx=0;entryDy=0;entryPerimeter=0;" parent="1" source="9" target="5" edge="1">
                    <mxGeometry relative="1" as="geometry"/>
                </mxCell>
                <mxCell id="23" value="&lt;div align=&quot;center&quot;&gt;&lt;b&gt;NOTERA: Ni MÅSTE inte ha ett &quot;repo&quot;&lt;/b&gt;&lt;br&gt;&lt;br&gt;&lt;b&gt;Ibland kan själva event hanteraren i ett bloc utföra all sin logik där, och sedan generera ett nytt state&lt;/b&gt;&lt;/div&gt;&lt;div align=&quot;center&quot;&gt;&lt;b&gt;&lt;br&gt;&lt;/b&gt;&lt;/div&gt;&lt;div align=&quot;center&quot;&gt;&lt;b&gt;Det är bra att separera ansvar, men inget ni behöver för att bli godkända.&lt;br&gt;&lt;/b&gt;&lt;/div&gt;" style="shape=callout;whiteSpace=wrap;html=1;perimeter=calloutPerimeter;fillColor=#f8cecc;strokeColor=#b85450;align=left;" parent="1" vertex="1">
                    <mxGeometry x="200" y="486" width="200" height="229" as="geometry"/>
                </mxCell>
                <mxCell id="24" value="&lt;b&gt;6. lib-koden kommunicerar med datalagring. T.ex. ObjectBox, HTTP-server, FireStore, osv&lt;br&gt;&lt;/b&gt;" style="rounded=1;whiteSpace=wrap;html=1;fillColor=#f5f5f5;fontColor=#333333;strokeColor=#666666;shadow=0;strokeWidth=2;opacity=70;fontSize=13;verticalAlign=middle;spacing=30;" parent="1" vertex="1">
                    <mxGeometry x="-17.5" y="805" width="165" height="120" as="geometry"/>
                </mxCell>
                <mxCell id="25" value="&lt;div&gt;&lt;font style=&quot;font-size: 12px;&quot;&gt;&lt;b&gt;6. Uppdatera datat vid den valda datalagringen&lt;br&gt;&lt;/b&gt;&lt;/font&gt;&lt;/div&gt;" style="ellipse;shape=cloud;whiteSpace=wrap;html=1;verticalAlign=middle;spacing=30;strokeColor=none;shadow=0;fillColor=none;" parent="1" vertex="1">
                    <mxGeometry x="-700" y="785" width="190" height="90" as="geometry"/>
                </mxCell>
                <mxCell id="26" value="&lt;b&gt;7. Success/Fail propageras hela vägen upp och genererar (potentiellt) ett nytt State&lt;br&gt;&lt;/b&gt;" style="rounded=1;whiteSpace=wrap;html=1;fillColor=#f5f5f5;fontColor=#333333;strokeColor=#666666;shadow=0;strokeWidth=2;opacity=70;fontSize=13;verticalAlign=middle;spacing=30;" parent="1" vertex="1">
                    <mxGeometry x="180" y="815" width="165" height="120" as="geometry"/>
                </mxCell>
                <mxCell id="27" value="&lt;b&gt;7. UpdatedState&lt;br&gt;&lt;/b&gt;" style="ellipse;shape=cloud;whiteSpace=wrap;html=1;verticalAlign=middle;spacing=30;shadow=0;fillColor=none;strokeColor=none;" parent="1" vertex="1">
                    <mxGeometry x="-200" y="500" width="160" height="40" as="geometry"/>
                </mxCell>
            </root>
        </mxGraphModel>
    </diagram>
</mxfile>